<svg width="512" height="512" viewBox="0 0 512 512" fill="none" xmlns="http://www.w3.org/2000/svg">
<path fill-rule="evenodd" clip-rule="evenodd" d="M50 0C22.3858 0 0 22.3858 0 50V462C0 489.614 22.3858 512 50 512H462C489.614 512 512 489.614 512 462V50C512 22.3858 489.614 0 462 0H50ZM87.3214 397.259C90.9487 400.887 96.9565 402.7 105.345 402.7C114.186 402.7 120.081 400.433 123.028 395.899C126.202 391.365 128.582 383.317 130.169 371.755C137.651 317.118 146.946 273.817 158.054 241.851C169.39 209.659 180.952 187.328 192.74 174.859C204.529 162.163 215.978 155.816 227.087 155.816C233.661 155.816 238.535 157.856 241.709 161.937C245.11 166.017 246.81 172.365 246.81 180.98C246.81 196.85 241.596 232.216 231.167 287.079C227.313 307.483 224.139 325.28 221.646 340.469C219.152 355.432 217.905 367.561 217.905 376.856C217.905 386.831 219.605 393.632 223.006 397.259C226.633 400.887 232.301 402.7 240.009 402.7C248.851 402.7 255.198 400.433 259.052 395.899C263.133 391.138 265.967 381.957 267.554 368.354C274.129 317.572 282.63 276.311 293.059 244.572C303.714 212.833 314.823 190.162 326.385 176.559C338.173 162.73 349.395 155.816 360.051 155.816C365.718 155.816 370.026 157.856 372.973 161.937C376.147 165.791 377.734 171.685 377.734 179.62C377.734 184.154 377.394 188.802 376.714 193.562C376.034 198.097 375.127 202.971 373.993 208.185C372.86 213.399 372.066 217.027 371.613 219.067L358.01 281.298C352.569 306.69 349.849 326.073 349.849 339.449C349.849 358.719 355.29 374.135 366.172 385.697C377.054 397.033 392.13 402.7 411.4 402.7C424.096 402.7 436.225 399.413 447.787 392.839C459.349 386.264 471.024 375.835 482.813 361.553C487.12 356.339 489.274 349.311 489.274 340.469C489.274 335.708 488.367 331.967 486.554 329.247C484.967 326.527 482.7 325.166 479.752 325.166C476.352 325.166 473.291 326.753 470.571 329.927C460.822 341.489 452.321 349.764 445.066 354.752C438.038 359.739 430.784 362.233 423.302 362.233C415.367 362.233 409.133 359.853 404.599 355.092C400.291 350.331 398.138 343.19 398.138 333.668C398.138 325.506 399.271 315.758 401.538 304.423L422.282 207.165C425.229 192.882 426.703 180.753 426.703 170.778C426.703 152.415 422.395 138.132 413.78 127.931C405.392 117.729 393.263 112.628 377.394 112.628C357.67 112.628 340.214 119.429 325.024 133.032C309.835 146.634 296.573 169.078 285.237 200.364C287.278 189.255 288.298 179.96 288.298 172.479C288.298 153.435 283.99 138.699 275.375 128.271C266.987 117.842 255.425 112.628 240.689 112.628C221.419 112.628 203.736 119.996 187.64 134.732C171.543 149.241 157.034 174.972 144.112 211.926C144.565 209.885 145.245 206.258 146.152 201.044C147.059 195.83 148.079 189.142 149.213 180.98C150.346 172.592 150.913 165.337 150.913 159.216C150.913 144.027 147.512 132.465 140.711 124.53C134.137 116.595 124.615 112.628 112.146 112.628C98.7701 112.628 85.3944 116.822 72.0186 125.21C58.6429 133.372 46.514 145.047 35.6321 160.236C32.2314 164.997 29.7377 169.305 28.1507 173.159C26.7905 176.786 26.1103 180.413 26.1103 184.041C26.1103 187.895 27.2439 191.409 29.5109 194.583C32.0047 197.53 34.8386 199.003 38.0125 199.003C41.8665 199.003 45.3805 196.85 48.5544 192.542C58.5295 179.393 67.5978 169.872 75.7593 163.977C84.1475 157.856 91.2888 154.795 97.1832 154.795C104.665 154.795 108.405 159.896 108.405 170.098C108.405 180.98 107.385 194.583 105.345 210.906C101.944 236.977 97.2965 267.809 91.4021 303.402C88.0015 322.673 85.5077 337.862 83.9208 348.971C82.5605 359.853 81.8804 368.808 81.8804 375.835C81.8804 386.264 83.6941 393.405 87.3214 397.259Z" fill="white"/>
</svg>
